<svg id="Layer_1" data-name="Layer 1" xmlns="http://www.w3.org/2000/svg" viewBox="0 0 164.47 35.29"><defs><style>.cls-1{fill:#f0531c;}.cls-2{fill:#fff;}</style></defs><rect class="cls-1" x="5.18" y="5.31" width="77.18" height="25.58"/><path class="cls-2" d="M16.69,28.47H8.6V7.94h8.09a11,11,0,0,1,7.87,2.83,9.72,9.72,0,0,1,3,7.45,9.64,9.64,0,0,1-3,7.43A11.06,11.06,0,0,1,16.69,28.47Zm0-3.85a6.15,6.15,0,0,0,4.7-1.84,6.41,6.41,0,0,0,1.74-4.56,6.48,6.48,0,0,0-1.7-4.63,6.17,6.17,0,0,0-4.74-1.8H13V24.62Z"/><path class="cls-2" d="M32.55,12a2.36,2.36,0,0,1-2.34-2.34A2.21,2.21,0,0,1,30.9,8a2.35,2.35,0,0,1,3.31,0,2.24,2.24,0,0,1,.68,1.63,2.28,2.28,0,0,1-.68,1.65A2.24,2.24,0,0,1,32.55,12Zm2,16.47H30.61V13.6h3.91Z"/><path class="cls-2" d="M60.77,28.47H56.83V19.08c0-1.58-.74-2.37-2.21-2.37a3.27,3.27,0,0,0-1.77.52,4.64,4.64,0,0,0-1.31,1.21v10H47.6V19.08q0-2.37-2.22-2.37a3.3,3.3,0,0,0-1.75.52,4.42,4.42,0,0,0-1.33,1.24v10H38.4V13.6h3.9v1.94A5.59,5.59,0,0,1,44.24,14a6,6,0,0,1,2.93-.76c2.15,0,3.53.91,4.12,2.71a6.32,6.32,0,0,1,5.11-2.71,4.39,4.39,0,0,1,3.23,1.13,4.53,4.53,0,0,1,1.14,3.37Z"/><path class="cls-2" d="M78.56,28.47h-3.9V26.59a6.69,6.69,0,0,1-5.24,2.25,4.82,4.82,0,0,1-3.6-1.23,4.73,4.73,0,0,1-1.2-3.45V13.6h3.91v9a2.42,2.42,0,0,0,2.74,2.74,4.13,4.13,0,0,0,3.39-1.69V13.6h3.9Z"/><path class="cls-1" d="M92.69,28.47H90.94V7.94h13v1.6H92.69v7.6h11v1.6h-11Z"/><path class="cls-1" d="M113.84,28.84a6.53,6.53,0,0,1-5.17-2.25,8.11,8.11,0,0,1-2-5.57,8,8,0,0,1,2-5.55,7.12,7.12,0,0,1,10.37,0A8.07,8.07,0,0,1,121,21a8.16,8.16,0,0,1-2,5.57A6.57,6.57,0,0,1,113.84,28.84Zm0-1.45a4.82,4.82,0,0,0,4-1.86A7.09,7.09,0,0,0,119.29,21a7.07,7.07,0,0,0-1.46-4.48,5.18,5.18,0,0,0-8,0A7.07,7.07,0,0,0,108.42,21a7.14,7.14,0,0,0,1.46,4.5A4.77,4.77,0,0,0,113.84,27.39Z"/><path class="cls-1" d="M131.41,28.84a6.56,6.56,0,0,1-5.17-2.25,8.16,8.16,0,0,1-2-5.57,8.07,8.07,0,0,1,2-5.55,7.13,7.13,0,0,1,10.38,0,8.07,8.07,0,0,1,2,5.55,8.16,8.16,0,0,1-2,5.57A6.6,6.6,0,0,1,131.41,28.84Zm0-1.45a4.79,4.79,0,0,0,4-1.86A7,7,0,0,0,136.86,21a7,7,0,0,0-1.46-4.48,5.17,5.17,0,0,0-7.94,0A7,7,0,0,0,126,21a7.09,7.09,0,0,0,1.46,4.5A4.73,4.73,0,0,0,131.41,27.39Z"/><path class="cls-1" d="M155.3,28.47h-1.63V26.1a6.46,6.46,0,0,1-2.2,2,6,6,0,0,1-3,.77,6.07,6.07,0,0,1-4.82-2.12,8.4,8.4,0,0,1-1.83-5.67,8.38,8.38,0,0,1,1.85-5.66,6,6,0,0,1,4.8-2.16A6.08,6.08,0,0,1,153.67,16V7.94h1.63Zm-6.52-1.08a5.64,5.64,0,0,0,2.86-.77,5.52,5.52,0,0,0,2-1.87V17.39a5.46,5.46,0,0,0-2-1.92,5.56,5.56,0,0,0-2.86-.79,4.59,4.59,0,0,0-3.81,1.8,7.24,7.24,0,0,0-1.4,4.57,7.19,7.19,0,0,0,1.4,4.56A4.6,4.6,0,0,0,148.78,27.39Z"/></svg>